<svg width="97" height="96" viewBox="0 0 97 96" fill="none" xmlns="http://www.w3.org/2000/svg">
<path d="M44 1C44 0.447716 44.4477 0 45 0H52C52.5523 0 53 0.447715 53 1V35C53 35.5523 52.5523 36 52 36H45C44.4477 36 44 35.5523 44 35V1Z" fill="white"/>
<path d="M44 78C44 77.4477 44.4477 77 45 77H52C52.5523 77 53 77.4477 53 78V95C53 95.5523 52.5523 96 52 96H45C44.4477 96 44 95.5523 44 95V78Z" fill="white"/>
<path d="M79 52C78.4477 52 78 51.5523 78 51V44C78 43.4477 78.4477 43 79 43H96C96.5523 43 97 43.4477 97 44V51C97 51.5523 96.5523 52 96 52H79Z" fill="white"/>
<path d="M1 52C0.447715 52 0 51.5523 0 51V44C0 43.4477 0.447715 43 1 43H18C18.5523 43 19 43.4477 19 44V51C19 51.5523 18.5523 52 18 52H1Z" fill="white"/>
<path d="M12.7071 18.0711C12.3166 17.6806 12.3166 17.0474 12.7071 16.6569L17.6569 11.7071C18.0474 11.3166 18.6805 11.3166 19.0711 11.7071L31.2769 23.913C31.6675 24.3035 31.6675 24.9367 31.2769 25.3272L26.3272 30.2769C25.9367 30.6675 25.3035 30.6675 24.913 30.2769L12.7071 18.0711Z" fill="white"/>
<path d="M77.913 11.7071C78.3035 11.3166 78.9367 11.3166 79.3272 11.7071L84.2769 16.6569C84.6674 17.0474 84.6674 17.6805 84.2769 18.0711L72.0711 30.2769C71.6805 30.6675 71.0474 30.6675 70.6569 30.2769L65.7071 25.3272C65.3166 24.9367 65.3166 24.3035 65.7071 23.913L77.913 11.7071Z" fill="white"/>
<path d="M83.8627 77.4987C84.2532 77.8893 84.2532 78.5224 83.8627 78.913L78.913 83.8627C78.5224 84.2532 77.8893 84.2532 77.4988 83.8627L65.2929 71.6568C64.9024 71.2663 64.9024 70.6332 65.2929 70.2426L70.2426 65.2929C70.6332 64.9024 71.2663 64.9024 71.6569 65.2929L83.8627 77.4987Z" fill="white"/>
<path d="M18.6569 83.8627C18.2663 84.2532 17.6332 84.2532 17.2426 83.8627L12.2929 78.913C11.9024 78.5224 11.9024 77.8893 12.2929 77.4988L24.4988 65.2929C24.8893 64.9024 25.5224 64.9024 25.913 65.2929L30.8627 70.2426C31.2532 70.6332 31.2532 71.2663 30.8627 71.6569L18.6569 83.8627Z" fill="white"/>
<path d="M44 44C44 43.4477 44.4477 43 45 43H52C52.5523 43 53 43.4477 53 44V52C53 52.5523 52.5523 53 52 53H45C44.4477 53 44 52.5523 44 52V44Z" fill="white"/>
</svg>
